<svg width="45" height="19" viewBox="0 0 45 19" fill="none" xmlns="http://www.w3.org/2000/svg">
<path d="M25.9764 10.2738H23.3838V13.0625H21.6181V10.2738H19.0396V8.71824H21.6181V5.94351H23.3838V8.71824H25.9764V10.2738Z" fill="white"/>
<path d="M35.9849 5.44606V2.44312H28.4775V15.9564H43.4923V5.44606H35.9849ZM31.4805 14.4549H29.979V12.9534H31.4805V14.4549ZM31.4805 11.452H29.979V9.95049H31.4805V11.452ZM31.4805 8.44901H29.979V6.94754H31.4805V8.44901ZM31.4805 5.44606H29.979V3.94459H31.4805V5.44606ZM34.4834 14.4549H32.982V12.9534H34.4834V14.4549ZM34.4834 11.452H32.982V9.95049H34.4834V11.452ZM34.4834 8.44901H32.982V6.94754H34.4834V8.44901ZM34.4834 5.44606H32.982V3.94459H34.4834V5.44606ZM41.9908 14.4549H35.9849V12.9534H37.4864V11.452H35.9849V9.95049H37.4864V8.44901H35.9849V6.94754H41.9908V14.4549ZM40.4893 8.44901H38.9879V9.95049H40.4893V8.44901ZM40.4893 11.452H38.9879V12.9534H40.4893V11.452Z" fill="white"/>
<path d="M16.287 12.7031V11.2016L10.2811 7.44794V3.31889C10.2811 2.69577 9.77807 2.19278 9.15495 2.19278C8.53184 2.19278 8.02885 2.69577 8.02885 3.31889V7.44794L2.02295 11.2016V12.7031L8.02885 10.8263V14.9553L6.52737 16.0814V17.2075L9.15495 16.4568L11.7825 17.2075V16.0814L10.2811 14.9553V10.8263L16.287 12.7031Z" fill="white"/>
</svg>
